<svg width="1152" height="305" viewBox="0 0 1152 305" fill="none" xmlns="http://www.w3.org/2000/svg">
<g clip-path="url(#clip0_5079_37144)">
<path d="M879.996 486.5C878.993 488.523 877.247 490.08 875.123 490.847L453.862 642.799C444.461 646.19 447.165 660.151 457.153 659.786L1553.53 619.686C1559.98 619.45 1563.97 612.561 1560.96 606.854L1187.4 -102.136C1184.07 -108.455 1174.98 -108.344 1171.81 -101.944L879.996 486.5Z" fill="#2D2D2D" fill-opacity="0.1"/>
<path d="M481.973 372.385L233.258 516.306C225.09 521.033 229.149 533.558 238.536 532.595L860.888 468.791C863.866 468.485 866.482 466.68 867.823 464.004L1102.68 -4.55158C1106.67 -12.5006 1097.64 -20.6399 1090.14 -15.8555L481.973 372.385Z" fill="#2D2D2D" fill-opacity="0.1"/>
<path d="M478.547 154.485C477.267 154.782 476.071 155.364 475.047 156.187L59.1672 490.302C51.8264 496.2 57.6953 507.943 66.8186 505.612L351.191 432.955C352.079 432.728 352.926 432.363 353.7 431.874L932.15 66.473C940.492 61.2035 935.101 48.3069 925.49 50.5419L478.547 154.485Z" fill="#2D2D2D" fill-opacity="0.1"/>
<path d="M-142.793 361.001C-143.288 361.177 -143.767 361.398 -144.223 361.66L-449.01 536.921C-457.953 542.063 -452.195 555.74 -442.267 552.938L153.667 384.779C154.784 384.463 155.828 383.929 156.737 383.207L408.704 182.962C416.449 176.808 409.643 164.543 400.323 167.858L-142.793 361.001Z" fill="#2D2D2D" fill-opacity="0.1"/>
</g>
<defs>
<clipPath id="clip0_5079_37144">
<rect width="1152" height="305" fill="white"/>
</clipPath>
</defs>
</svg>
