<svg width="32" height="32" viewBox="0 0 32 32" fill="none" xmlns="http://www.w3.org/2000/svg">
<g clipPath="url(#clip0_5079_36736)">
<path d="M8.98438 13.3857C9.53505 14.1328 10.3211 14.6948 11.2357 14.9648C11.5945 14.4059 11.9979 13.8782 12.4399 13.3857H8.98438Z" fill="#F85C3A"/>
<path d="M10.3312 16.6509C8.7625 16.0783 7.49496 14.8937 6.8114 13.3858H4.90975V11.5009H6.29691C6.28309 11.3743 6.27166 11.2469 6.2655 11.118C6.25004 10.7935 6.25997 10.472 6.29396 10.1554H4.90975V8.27063H6.81222C7.09595 7.65203 7.48504 7.07672 7.97226 6.56575C9.15756 5.32272 10.8226 4.60975 12.5404 4.60975H13.6478V6.49457H12.5404C11.3355 6.49457 10.1676 6.99461 9.33624 7.86646C9.21335 7.99538 9.10051 8.13071 8.99572 8.27063H12.4618V10.1554H8.19523C8.15025 10.4409 8.1341 10.7329 8.14818 11.0284C8.15578 11.1885 8.17306 11.346 8.1975 11.5009H12.4618V13.3613C14.7016 10.8792 17.9364 9.31211 21.531 9.29521C20.7879 4.04858 16.268 0 10.8195 0C4.85365 0 0 4.85365 0 10.8195C0 16.268 4.04852 20.788 9.29515 21.5311C9.30332 19.7968 9.67262 18.1464 10.3312 16.6509Z" fill="#F85C3A"/>
<path d="M19.114 19.1664V19.3419C19.114 19.9835 19.636 20.5055 20.2775 20.5055H20.5298V18.0029H20.2775C19.636 18.0029 19.114 18.5249 19.114 19.1664Z" fill="#F85C3A"/>
<path d="M22.4357 24.7177C23.0773 24.7177 23.5993 24.1957 23.5993 23.5541C23.5993 22.9126 23.0773 22.3906 22.4357 22.3906H22.4141V24.7176L22.4357 24.7177Z" fill="#F85C3A"/>
<path d="M21.5901 11.1797C15.8498 11.1797 11.1797 15.8498 11.1797 21.5901C11.1797 27.3303 15.8498 32.0004 21.5901 32.0004C27.3303 32.0004 32.0004 27.3303 32.0004 21.5901C32.0005 15.8498 27.3304 11.1797 21.5901 11.1797ZM25.4851 18.0033H22.4151V20.5058H22.4367C24.1176 20.5058 25.4851 21.8733 25.4851 23.5541C25.4851 25.235 24.1176 26.6025 22.4367 26.6025H22.4151V28.5329H20.5302V26.6025H17.2298V24.7177H20.5302V22.3907H20.278C18.5972 22.3907 17.2297 21.0232 17.2297 19.3423V19.1668C17.2297 17.486 18.5972 16.1185 20.278 16.1185H20.5302V14.188H22.4151V16.1185H25.4851V18.0033Z" fill="#F85C3A"/>
<path d="M24.8921 6.51386L23.7198 4.91151C26.5419 5.81667 28.649 8.47765 28.649 11.5212H30.5338C30.5338 9.18797 29.5926 6.97614 27.8835 5.293C26.8869 4.31158 25.7101 3.58907 24.4358 3.15889L25.9693 2.31022L25.0566 0.661133L20.2293 3.33273L23.371 7.62678L24.8921 6.51386Z" fill="#F85C3A"/>
<path d="M10.6802 27.2551L8.74275 24.6072L7.22164 25.7202L8.394 27.3226C5.57186 26.4174 3.46483 23.7564 3.46483 20.7129H1.58002C1.58002 23.0461 2.52123 25.258 4.23032 26.9411C5.22688 27.9226 6.4037 28.645 7.67796 29.0752L6.14453 29.9238L7.05722 31.5729L11.7617 28.9692L11.8845 28.9012L10.6802 27.2551Z" fill="#F85C3A"/>
</g>
<defs>
<clipPath id="clip0_5079_36736">
<rect width="32" height="32" fill="white"/>
</clipPath>
</defs>
</svg>
