<svg width="32" height="32" viewBox="0 0 32 32" fill="none" xmlns="http://www.w3.org/2000/svg">
<path d="M25.3336 11.232V9.33331C25.3336 4.17869 21.155 0 16.0003 0C10.8456 0 6.66699 4.17869 6.66699 9.33331V11.232C4.24037 12.2911 2.67049 14.6857 2.66699 17.3333V25.3333C2.67137 29.0134 5.65355 31.9956 9.33362 32H22.6669C26.347 31.9956 29.3292 29.0134 29.3336 25.3333V17.3333C29.3302 14.6857 27.7602 12.2911 25.3336 11.232ZM17.3336 22.6667C17.3336 23.4031 16.7367 24 16.0003 24C15.2639 24 14.667 23.4031 14.667 22.6667V20C14.667 19.2636 15.2639 18.6667 16.0003 18.6667C16.7367 18.6667 17.3336 19.2636 17.3336 20V22.6667ZM22.667 10.6667H9.33362V9.33337C9.33362 5.6515 12.3184 2.66669 16.0003 2.66669C19.6822 2.66669 22.667 5.65144 22.667 9.33337V10.6667Z" fill="#F85C3A"/>
</svg>
