<svg width="32" height="32" viewBox="0 0 32 32" fill="none" xmlns="http://www.w3.org/2000/svg">
<g id="Layer_1">
<g id="Group">
<path id="Vector" d="M20.6356 5.27065C20.6356 4.94597 20.3716 4.67773 20.0426 4.67773H11.9579C11.628 4.67773 11.365 4.94597 11.365 5.27065V7.48713H20.6356V5.27065Z" fill="#F85C3A"/>
<path id="Vector_2" d="M9.83548 14.1045H3.55266C3.01196 14.1045 2.57385 14.5421 2.57385 15.0786V29.4127H9.83548V14.1045ZM8.16821 27.7624H5.18372C5.05383 27.7624 4.94842 27.657 4.94842 27.5271C4.94842 27.3967 5.05383 27.2918 5.18372 27.2918H8.16821C8.29806 27.2918 8.4035 27.3967 8.4035 27.5271C8.4035 27.657 8.29806 27.7624 8.16821 27.7624ZM8.16821 24.3035H5.18372C5.05383 24.3035 4.94842 24.1981 4.94842 24.0682C4.94842 23.9379 5.05383 23.8329 5.18372 23.8329H8.16821C8.29806 23.8329 8.4035 23.9379 8.4035 24.0682C8.4035 24.1981 8.29806 24.3035 8.16821 24.3035ZM8.16821 20.8447H5.18372C5.05383 20.8447 4.94842 20.7393 4.94842 20.6094C4.94842 20.4795 5.05383 20.3741 5.18372 20.3741H8.16821C8.29806 20.3741 8.4035 20.4795 8.4035 20.6094C8.4035 20.7393 8.29806 20.8447 8.16821 20.8447ZM8.16821 17.3859H5.18372C5.05383 17.3859 4.94842 17.2805 4.94842 17.1506C4.94842 17.0207 5.05383 16.9153 5.18372 16.9153H8.16821C8.29806 16.9153 8.4035 17.0207 8.4035 17.1506C8.4035 17.2805 8.29806 17.3859 8.16821 17.3859Z" fill="#F85C3A"/>
<path id="Vector_3" d="M16.2353 1.88276C16.2353 1.75101 16.1318 1.64746 16 1.64746C15.8682 1.64746 15.7647 1.75101 15.7647 1.88276V4.20746H16.2353V1.88276Z" fill="#F85C3A"/>
<path id="Vector_4" d="M21.6947 8.55095C21.6947 8.22625 21.4265 7.95801 21.1018 7.95801H10.8994C10.5742 7.95801 10.3065 8.22625 10.3065 8.55095V29.4121H21.6947V8.55095ZM15.7648 28.9415H13.243V21.2568C13.243 21.1251 13.3507 21.0215 13.4782 21.0215H15.7648V28.9415ZM18.7582 28.9415H16.2354V21.0215H18.5229C18.6495 21.0215 18.7582 21.1251 18.7582 21.2568V28.9415ZM19.5761 16.8521C19.5761 17.094 19.3799 17.2907 19.1375 17.2907H12.8627C12.6208 17.2907 12.4246 17.094 12.4246 16.8521V15.2102C12.4246 14.9684 12.6208 14.7721 12.8627 14.7721H19.1375C19.3799 14.7721 19.5761 14.9684 19.5761 15.2102V16.8521ZM19.5761 12.8629C19.5761 13.1053 19.3799 13.3015 19.1375 13.3015H12.8627C12.6208 13.3015 12.4246 13.1053 12.4246 12.8629V11.2215C12.4246 10.9797 12.6208 10.7829 12.8627 10.7829H19.1375C19.3799 10.7829 19.5761 10.9797 19.5761 11.2215V12.8629Z" fill="#F85C3A"/>
<path id="Vector_5" d="M29.4258 19.0307C29.4258 18.6735 29.2329 18.3488 28.9176 18.1747L22.1651 14.457V29.4119H29.4258V19.0307ZM26.6503 27.3907H23.998C23.8681 27.3907 23.7627 27.2852 23.7627 27.1554C23.7627 27.0255 23.8681 26.9201 23.998 26.9201H26.6503C26.7801 26.9201 26.8856 27.0255 26.8856 27.1554C26.8856 27.2852 26.7801 27.3907 26.6503 27.3907ZM26.6503 24.2641H23.998C23.8681 24.2641 23.7627 24.1587 23.7627 24.0288C23.7627 23.8984 23.8681 23.7935 23.998 23.7935H26.6503C26.7801 23.7935 26.8856 23.8984 26.8856 24.0288C26.8856 24.1587 26.7801 24.2641 26.6503 24.2641ZM26.6503 21.137H23.998C23.8681 21.137 23.7627 21.0316 23.7627 20.9017C23.7627 20.7719 23.8681 20.6664 23.998 20.6664H26.6503C26.7801 20.6664 26.8856 20.7719 26.8856 20.9017C26.8856 21.0316 26.7801 21.137 26.6503 21.137Z" fill="#F85C3A"/>
<path id="Vector_6" d="M31.0588 29.8828H0.941166C0.811283 29.8828 0.705872 29.9883 0.705872 30.1181C0.705872 30.248 0.811283 30.3534 0.941166 30.3534H31.0588C31.1887 30.3534 31.2941 30.248 31.2941 30.1181C31.2941 29.9883 31.1887 29.8828 31.0588 29.8828Z" fill="#F85C3A"/>
</g>
</g>
</svg>
