<svg width="32" height="32" viewBox="0 0 32 32" fill="none" xmlns="http://www.w3.org/2000/svg">
<g clipPath="url(#clip0_5079_36726)">
<path d="M8.13987 8.6416L5.36752 8.85579C4.59609 8.91541 3.90903 9.31972 3.48241 9.96503L0.285123 14.8007C-0.0384369 15.2901 -0.0898739 15.9025 0.147437 16.439C0.38481 16.9755 0.872618 17.3494 1.4523 17.4392L3.99072 17.8323C4.58453 14.6811 6.00602 11.5376 8.13987 8.6416Z" fill="#F85C3A"/>
<path d="M14.168 28.0095L14.5612 30.5479C14.651 31.1276 15.0248 31.6154 15.5613 31.8527C15.7845 31.9515 16.0207 32.0002 16.2558 32.0002C16.5859 32.0002 16.9138 31.904 17.1996 31.715L22.0355 28.5178C22.6808 28.0911 23.0851 27.404 23.1446 26.6327L23.3588 23.8604C20.4627 25.9943 17.3193 27.4158 14.168 28.0095Z" fill="#F85C3A"/>
<path d="M13.2128 26.2502C13.301 26.2502 13.3896 26.243 13.478 26.2282C14.7983 26.0075 16.0707 25.6356 17.2846 25.1489L6.85157 14.7158C6.36482 15.9296 5.99295 17.2021 5.7722 18.5224C5.6852 19.0428 5.85976 19.573 6.23282 19.9462L12.0543 25.7676C12.364 26.0773 12.7821 26.2502 13.2128 26.2502Z" fill="#F85C3A"/>
<path d="M29.448 14.1876C32.0011 9.25174 32.0956 4.03578 31.9622 1.58955C31.9165 0.751369 31.2483 0.0831243 30.41 0.0374372C30.0117 0.0156874 29.5397 0 29.0076 0C26.2722 0 21.9441 0.414309 17.812 2.5516C14.5281 4.25015 10.2221 7.99019 7.68164 12.9053C7.71164 12.9287 7.74095 12.9536 7.76858 12.9812L19.0185 24.2311C19.0461 24.2587 19.0709 24.288 19.0944 24.318C24.0095 21.7775 27.7495 17.4714 29.448 14.1876ZM18.6056 6.76495C20.4332 4.9374 23.407 4.93721 25.2346 6.76495C26.12 7.65025 26.6076 8.82743 26.6076 10.0795C26.6076 11.3315 26.12 12.5087 25.2346 13.394C24.3209 14.3077 23.1203 14.7646 21.9202 14.7648C20.7196 14.7648 19.5195 14.308 18.6056 13.394C17.7202 12.5087 17.2326 11.3315 17.2326 10.0795C17.2326 8.82743 17.7202 7.65025 18.6056 6.76495Z" fill="#F85C3A"/>
<path d="M19.9321 12.0684C21.0287 13.165 22.8131 13.1651 23.9096 12.0684C24.4408 11.5372 24.7334 10.8309 24.7334 10.0797C24.7334 9.32843 24.4408 8.62218 23.9096 8.09099C23.3614 7.54268 22.6411 7.26855 21.9209 7.26855C21.2007 7.26855 20.4805 7.54268 19.9322 8.09099C19.401 8.62218 19.1084 9.32843 19.1084 10.0797C19.1084 10.8309 19.401 11.5372 19.9321 12.0684Z" fill="#F85C3A"/>
<path d="M0.956086 26.3714C1.19602 26.3714 1.43596 26.2799 1.61896 26.0968L4.67977 23.036C5.0459 22.6698 5.0459 22.0763 4.67977 21.7101C4.31371 21.344 3.72009 21.344 3.35396 21.7101L0.293148 24.771C-0.0729766 25.1371 -0.0729766 25.7306 0.293148 26.0968C0.476211 26.2798 0.716148 26.3714 0.956086 26.3714Z" fill="#F85C3A"/>
<path d="M7.48531 24.5148C7.11924 24.1487 6.52562 24.1487 6.15949 24.5148L0.274807 30.3995C-0.0913176 30.7656 -0.0913176 31.3592 0.274807 31.7253C0.45787 31.9084 0.697807 31.9999 0.937745 31.9999C1.17768 31.9999 1.41762 31.9084 1.60062 31.7253L7.48524 25.8406C7.85143 25.4745 7.85143 24.881 7.48531 24.5148Z" fill="#F85C3A"/>
<path d="M8.96446 27.3195L5.90371 30.3803C5.53759 30.7465 5.53759 31.34 5.90371 31.7061C6.08678 31.8892 6.32671 31.9808 6.56659 31.9808C6.80646 31.9808 7.04646 31.8893 7.22946 31.7061L10.2903 28.6453C10.6564 28.2792 10.6564 27.6856 10.2903 27.3195C9.92421 26.9534 9.33059 26.9534 8.96446 27.3195Z" fill="#F85C3A"/>
</g>
<defs>
<clipPath id="clip0_5079_36726">
<rect width="32" height="32" fill="white"/>
</clipPath>
</defs>
</svg>
