<svg width="32" height="32" viewBox="0 0 32 32" fill="none" xmlns="http://www.w3.org/2000/svg">
<g clipPath="url(#clip0_5079_36745)">
<path d="M7.55566 20.9958L13.5152 24.3113L16.552 18.8057L10.5925 15.4902L7.55566 20.9958Z" fill="#F85C3A"/>
<path d="M18.2943 7.79581C18.7354 7.64199 19.1854 7.5145 19.6417 7.41411C19.1163 6.7844 18.1663 6.60065 17.4664 7.05022C16.862 7.43837 16.6225 8.20486 16.8607 8.87509C17.1149 9.5897 17.8525 10.0653 18.6099 9.99437C19.4291 9.91772 20.0655 9.22039 20.0257 8.3899C19.7127 8.45313 19.4025 8.53029 19.0964 8.6214C18.8592 8.69185 18.5849 8.8467 18.333 8.7814C17.852 8.65649 17.8254 7.95943 18.2943 7.79581C18.7405 7.64019 18.0251 7.88975 18.2943 7.79581Z" fill="#F85C3A"/>
<path d="M31.8131 4.86623C31.594 4.68454 31.2686 4.71448 31.0864 4.93436C29.5699 6.76387 28.0395 7.72495 26.538 7.79179C26.0836 7.8114 25.6856 7.74921 25.2711 7.65656L25.5233 8.75441C25.1893 8.70022 24.8688 8.62409 24.5413 8.54279C23.8432 8.36936 23.1211 8.19026 22.0444 8.18561C21.7133 8.18484 21.3814 8.2029 21.049 8.23568C21.0929 8.73093 20.9982 9.24012 20.7432 9.70233C19.8593 11.3045 17.5755 11.4444 16.3987 10.092C15.4113 8.95778 15.5527 7.15769 16.7887 6.26217C17.6248 5.6562 18.7642 5.6131 19.6616 6.11171C20.145 6.38062 20.5153 6.77445 20.7532 7.22815C21.1698 7.17963 21.5866 7.15331 22.0026 7.15331H22.049C23.2496 7.15847 24.068 7.36157 24.7901 7.54068C24.9558 7.58197 25.115 7.62042 25.2722 7.65552L23.8752 1.56955C23.6073 0.404076 22.3944 -0.277248 21.258 0.115546L10.8142 3.73714C9.8722 4.06412 9.0781 4.74312 8.57795 5.64949L0.520266 20.2577C-0.522623 22.1484 0.0518567 24.4783 1.80084 25.4515L12.8027 31.572C14.6368 32.5922 16.9012 31.6647 17.8713 29.9059L25.929 15.298C26.4289 14.3921 26.5809 13.3567 26.3571 12.3825L25.5251 8.75777C25.875 8.81429 26.2294 8.83855 26.5837 8.82306C28.3885 8.7428 30.1707 7.6563 31.881 5.59297C32.0632 5.37361 32.0328 5.04817 31.8131 4.86623ZM17.7046 18.8532L14.1692 25.2628C14.0334 25.5088 13.7126 25.6019 13.4662 25.4646L6.60469 21.6474C6.35616 21.5091 6.26635 21.196 6.40365 20.947L9.9393 14.5374C10.0748 14.2917 10.3961 14.1983 10.6423 14.3356L17.5038 18.1528C17.7523 18.2911 17.8419 18.6042 17.7046 18.8532Z" fill="#F85C3A"/>
</g>
<defs>
<clipPath id="clip0_5079_36745">
<rect width="32" height="32" fill="white"/>
</clipPath>
</defs>
</svg>
