<svg width="1440" height="418" viewBox="0 0 1440 418" fill="none" xmlns="http://www.w3.org/2000/svg">
<g clip-path="url(#clip0_5079_37503)">
<path d="M-211.364 447.555C-214.306 448.519 -217.506 448.309 -220.297 446.969L-658.012 236.748C-670.438 230.78 -681.476 247.047 -671.339 256.389L227.178 1084.5C233.783 1090.58 244.489 1087.52 246.878 1078.86L478.009 241.235C480.555 232.006 471.801 223.658 462.704 226.64L-211.364 447.555Z" fill="#FF7C60"/>
<path d="M428.089 602.192C425.237 612.382 436.012 621.007 445.331 615.993L769.773 441.417C778.608 436.663 778.055 423.809 768.843 419.833L522.958 313.689C516.285 310.809 508.604 314.474 506.646 321.473L428.089 602.192Z" fill="#F96849"/>
<path d="M424.806 578.497C422.445 579.769 420.578 581.795 419.504 584.252L312.009 830.07C307.718 839.882 317.454 849.974 327.414 846.038L1268.63 474.066C1279.76 469.665 1278.29 453.456 1266.54 451.134L827.87 364.411C825.138 363.871 822.302 364.298 819.85 365.619L424.806 578.497Z" fill="#F96849"/>
<path d="M-250.478 97.3308L-749.026 -39.3399C-761.639 -42.7975 -769.899 -26.45 -759.634 -18.3475L-212.095 413.822C-208.934 416.318 -204.732 417.061 -200.907 415.801L316.514 245.407C328.104 241.59 327.263 224.923 315.348 222.291L-250.478 97.3308Z" fill="#F96849"/>
<path d="M-201.595 -180.665C-203.647 -182.51 -206.271 -183.592 -209.026 -183.728L-869.816 -216.438C-883.254 -217.103 -887.441 -198.541 -875.018 -193.373L-232.424 73.9793C-231.774 74.2496 -231.102 74.4623 -230.415 74.6147L140.205 156.895C152.25 159.569 160.004 144.507 150.829 136.257L-201.595 -180.665Z" fill="#F96849"/>
<path d="M1651.36 447.555C1654.31 448.519 1657.51 448.309 1660.3 446.969L2098.01 236.748C2110.44 230.78 2121.48 247.047 2111.34 256.389L1212.82 1084.5C1206.22 1090.58 1195.51 1087.52 1193.12 1078.86L961.991 241.235C959.445 232.006 968.199 223.658 977.296 226.64L1651.36 447.555Z" fill="#FF7C60"/>
<path d="M1011.91 602.192C1014.76 612.382 1003.99 621.007 994.67 615.993L670.227 441.417C661.392 436.663 661.946 423.809 671.158 419.833L917.042 313.689C923.715 310.809 931.396 314.474 933.354 321.473L1011.91 602.192Z" fill="#F96849"/>
<path d="M1015.19 578.497C1017.55 579.769 1019.42 581.795 1020.5 584.252L1127.99 830.07C1132.28 839.882 1122.55 849.974 1112.59 846.038L171.372 474.066C160.235 469.665 161.708 453.456 173.456 451.134L612.13 364.411C614.862 363.871 617.698 364.298 620.15 365.619L1015.19 578.497Z" fill="#F96849"/>
<path d="M1690.48 97.3308L2189.03 -39.3399C2201.64 -42.7975 2209.9 -26.45 2199.63 -18.3475L1652.09 413.822C1648.93 416.318 1644.73 417.061 1640.91 415.801L1123.49 245.407C1111.9 241.59 1112.74 224.923 1124.65 222.291L1690.48 97.3308Z" fill="#F96849"/>
<path d="M1641.6 -180.665C1643.65 -182.51 1646.27 -183.592 1649.03 -183.728L2309.82 -216.438C2323.25 -217.103 2327.44 -198.541 2315.02 -193.373L1672.42 73.9793C1671.77 74.2496 1671.1 74.4623 1670.42 74.6147L1299.8 156.895C1287.75 159.569 1280 144.507 1289.17 136.257L1641.6 -180.665Z" fill="#F96849"/>
</g>
<defs>
<clipPath id="clip0_5079_37503">
<rect width="1440" height="418" fill="white"/>
</clipPath>
</defs>
</svg>
