<svg width="1440" height="418" viewBox="0 0 1440 418" fill="none" xmlns="http://www.w3.org/2000/svg">
<g clip-path="url(#clip0_5079_37518)">
<path d="M-211.364 -29.555C-214.306 -30.519 -217.506 -30.3091 -220.297 -28.9689L-658.012 181.252C-670.438 187.22 -681.476 170.953 -671.339 161.611L227.178 -666.496C233.783 -672.583 244.489 -669.523 246.878 -660.864L478.009 176.765C480.555 185.994 471.801 194.342 462.704 191.36L-211.364 -29.555Z" fill="#FF7C60"/>
<path d="M428.089 -184.192C425.237 -194.382 436.012 -203.007 445.331 -197.993L769.773 -23.4173C778.608 -18.663 778.055 -5.80929 768.843 -1.83267L522.958 104.311C516.286 107.191 508.605 103.526 506.646 96.5273L428.089 -184.192Z" fill="#F96849"/>
<path d="M424.806 -160.497C422.445 -161.769 420.578 -163.796 419.504 -166.253L312.009 -412.07C307.718 -421.883 317.454 -431.974 327.414 -428.038L1268.63 -56.0667C1279.76 -51.6652 1278.29 -35.4569 1266.54 -33.1344L827.87 53.5883C825.138 54.1286 822.302 53.7014 819.85 52.3801L424.806 -160.497Z" fill="#F96849"/>
<path d="M-250.478 320.67L-749.026 457.34C-761.639 460.798 -769.899 444.451 -759.634 436.348L-212.095 4.17806C-208.934 1.68298 -204.732 0.939958 -200.907 2.19961L316.514 172.594C328.104 176.41 327.263 193.078 315.348 195.709L-250.478 320.67Z" fill="#F96849"/>
<path d="M-201.595 598.665C-203.646 600.51 -206.271 601.592 -209.026 601.728L-869.816 634.438C-883.254 635.103 -887.441 616.541 -875.018 611.373L-232.424 344.021C-231.774 343.75 -231.102 343.538 -230.415 343.385L140.205 261.105C152.25 258.431 160.004 273.493 150.829 281.743L-201.595 598.665Z" fill="#F96849"/>
<path d="M1651.36 -29.555C1654.31 -30.519 1657.51 -30.3091 1660.3 -28.9689L2098.01 181.252C2110.44 187.22 2121.48 170.953 2111.34 161.611L1212.82 -666.496C1206.22 -672.583 1195.51 -669.523 1193.12 -660.864L961.991 176.765C959.445 185.994 968.199 194.342 977.296 191.36L1651.36 -29.555Z" fill="#FF7C60"/>
<path d="M1011.91 -184.192C1014.76 -194.382 1003.99 -203.007 994.67 -197.993L670.227 -23.4173C661.392 -18.663 661.946 -5.80929 671.158 -1.83267L917.042 104.311C923.715 107.191 931.396 103.526 933.354 96.5273L1011.91 -184.192Z" fill="#F96849"/>
<path d="M1015.19 -160.497C1017.55 -161.769 1019.42 -163.796 1020.5 -166.253L1127.99 -412.07C1132.28 -421.883 1122.55 -431.974 1112.59 -428.038L171.372 -56.0667C160.235 -51.6652 161.708 -35.4569 173.456 -33.1344L612.13 53.5883C614.862 54.1286 617.698 53.7014 620.15 52.3801L1015.19 -160.497Z" fill="#F96849"/>
<path d="M1690.48 320.67L2189.03 457.34C2201.64 460.798 2209.9 444.451 2199.63 436.348L1652.09 4.17806C1648.93 1.68298 1644.73 0.939958 1640.91 2.19961L1123.49 172.594C1111.9 176.41 1112.74 193.078 1124.65 195.709L1690.48 320.67Z" fill="#F96849"/>
<path d="M1641.6 598.665C1643.65 600.51 1646.27 601.592 1649.03 601.728L2309.82 634.438C2323.25 635.103 2327.44 616.541 2315.02 611.373L1672.42 344.021C1671.77 343.75 1671.1 343.538 1670.42 343.385L1299.8 261.105C1287.75 258.431 1280 273.493 1289.17 281.743L1641.6 598.665Z" fill="#F96849"/>
</g>
<defs>
<clipPath id="clip0_5079_37518">
<rect width="1440" height="418" fill="white" transform="matrix(1 0 0 -1 0 418)"/>
</clipPath>
</defs>
</svg>
